<?xml version="1.0" encoding="UTF-8"?>
<svg width="180px" height="164px" viewBox="0 0 180 164" version="1.1" xmlns="http://www.w3.org/2000/svg" xmlns:xlink="http://www.w3.org/1999/xlink">
    <title>bot-7</title>
    <defs>
        <path d="M24.4625166,16 C28.4743509,16 29.929139,16.4177153 31.3958057,17.2020972 C32.8624723,17.9864791 34.0135209,19.1375277 34.7979028,20.6041943 C35.5822847,22.070861 36,23.5256491 36,27.5374834 L36,48.4625166 C36,52.4743509 35.5822847,53.929139 34.7979028,55.3958057 C34.0135209,56.8624723 32.8624723,58.0135209 31.3958057,58.7979028 C29.929139,59.5822847 28.4743509,60 24.4625166,60 L11.5374834,60 C7.52564907,60 6.070861,59.5822847 4.60419433,58.7979028 C3.13752767,58.0135209 1.98647908,56.8624723 1.20209717,55.3958057 C0.41771525,53.929139 1.80555915e-16,52.4743509 -3.10752092e-16,48.4625166 L3.10752092e-16,27.5374834 C-1.80555915e-16,23.5256491 0.41771525,22.070861 1.20209717,20.6041943 C1.98647908,19.1375277 3.13752767,17.9864791 4.60419433,17.2020972 C6.070861,16.4177153 7.52564907,16 11.5374834,16 L24.4625166,16 Z M140.462517,16 C144.474351,16 145.929139,16.4177153 147.395806,17.2020972 C148.862472,17.9864791 150.013521,19.1375277 150.797903,20.6041943 C151.582285,22.070861 152,23.5256491 152,27.5374834 L152,48.4625166 C152,52.4743509 151.582285,53.929139 150.797903,55.3958057 C150.013521,56.8624723 148.862472,58.0135209 147.395806,58.7979028 C145.929139,59.5822847 144.474351,60 140.462517,60 L127.537483,60 C123.525649,60 122.070861,59.5822847 120.604194,58.7979028 C119.137528,58.0135209 117.986479,56.8624723 117.202097,55.3958057 C116.417715,53.929139 116,52.4743509 116,48.4625166 L116,27.5374834 C116,23.5256491 116.417715,22.070861 117.202097,20.6041943 C117.986479,19.1375277 119.137528,17.9864791 120.604194,17.2020972 C122.070861,16.4177153 123.525649,16 127.537483,16 L140.462517,16 Z" id="path-1"></path>
        <path d="M0,89 C0,88.9795073 0.0141049326,89.1836401 0,90 C0.183374957,90.4764708 0.402008635,91.4971444 1,93 C1.82671155,96.0560243 3.7804036,99.5565275 7,103 C16.6943975,113.399831 35.1723647,120 65,120 C94.8276353,120 113.305603,113.399637 123,103 C126.219596,99.5565275 128.173198,96.0560243 129,93 C129.597973,91.4971251 129.816625,90.4764321 130,90 C129.985895,89.1836498 130,88.9795151 130,89 L130,50 C130,50.1036464 129.971788,49.4988099 130,49 C129.739042,46.8828777 129.471022,44.9851234 129,43 C127.813584,37.0088305 125.606104,31.0889814 122,26 C112.282973,9.66267383 94.2553094,0 65,0 C35.7447556,0 17.7163695,9.66228674 8,26 C4.39414151,31.089175 2.18649928,37.0088305 1,43 C0.529043306,44.9851234 0.26102792,46.8828583 0,49 C0.0282766705,49.4534424 0,50.3228972 0,50 L0,89 Z" id="path-3"></path>
    </defs>
    <g id="Intro" stroke="none" stroke-width="1" fill="none" fill-rule="evenodd">
        <g id="bot-7">
            <g id="Sides/Square" transform="translate(0.000000, 66.000000)">
                <g id="Ears" transform="translate(14.000000, 0.000000)">
                    <mask id="mask-2" fill="white">
                        <use xlink:href="#path-1"></use>
                    </mask>
                    <use fill="#0076DE" xlink:href="#path-1"></use>
                    <g id="Color/19-Blue-Grey/300" mask="url(#mask-2)" fill="#90A4AE">
                        <g transform="translate(-14.000000, 0.000000)">
                            <rect x="0" y="0" width="180" height="76"></rect>
                        </g>
                    </g>
                    <rect id="Shadow" fill-opacity="0.1" fill="#000000" mask="url(#mask-2)" x="-14" y="38" width="180" height="38"></rect>
                </g>
            </g>
            <g id="Face/Round-02" transform="translate(25.000000, 44.000000)">
                <mask id="mask-4" fill="white">
                    <use xlink:href="#path-3"></use>
                </mask>
                <use id="Round-and-Soft" fill="#E1E6E8" fill-rule="evenodd" transform="translate(65.000000, 60.000000) scale(1, -1) translate(-65.000000, -60.000000) " xlink:href="#path-3"></use>
                <g id="Color/19-Blue-Grey/200" mask="url(#mask-4)" fill="#B0BEC5" fill-rule="evenodd">
                    <g transform="translate(-4.000000, -2.000000)">
                        <rect x="0" y="0" width="138" height="124"></rect>
                    </g>
                </g>
                <g id="Texture/-None" mask="url(#mask-4)">
                    <g transform="translate(-1.000000, -1.000000)"></g>
                </g>
            </g>
            <g id="Mouth/Grill-03" transform="translate(52.000000, 124.000000)">
                <rect id="Kiss-The-Robot-Beep-Boop" fill-opacity="0.2" fill="#000000" x="4" y="5" width="68" height="22" rx="5"></rect>
                <path d="M10,9 L66,9 C67.1045695,9 68,9.8954305 68,11 L68,21 C68,22.1045695 67.1045695,23 66,23 L10,23 C8.8954305,23 8,22.1045695 8,21 L8,11 C8,9.8954305 8.8954305,9 10,9 Z" id="Kiss-The-Robot-Beep-Boop" fill="#FFFFFF"></path>
                <rect id="Bender-Teeth" fill-opacity="0.1" fill="#000000" x="18" y="9" width="4" height="14"></rect>
                <rect id="Bender-Teeth" fill-opacity="0.1" fill="#000000" x="42" y="9" width="4" height="14"></rect>
                <rect id="Bender-Teeth" fill-opacity="0.1" fill="#000000" x="30" y="9" width="4" height="14"></rect>
                <rect id="Bender-Teeth" fill-opacity="0.1" fill="#000000" x="54" y="9" width="4" height="14"></rect>
            </g>
            <g id="Eyes/Round-Frame-02" transform="translate(38.000000, 76.000000)">
                <rect id="Container" fill-opacity="0.8" fill="#000000" x="0" y="11" width="104" height="34" rx="17"></rect>
                <circle id="Cornea" fill="#F1EEDA" cx="29" cy="28" r="13"></circle>
                <circle id="Cornea" fill="#F1EEDA" cx="75" cy="28" r="13"></circle>
                <path d="M26.5638852,23 L31.4361148,23 C32.3276335,23 32.6509198,23.0928256 32.9768457,23.2671327 C33.3027716,23.4414398 33.5585602,23.6972284 33.7328673,24.0231543 C33.9071744,24.3490802 34,24.6723665 34,25.5638852 L34,30.4361148 C34,31.3276335 33.9071744,31.6509198 33.7328673,31.9768457 C33.5585602,32.3027716 33.3027716,32.5585602 32.9768457,32.7328673 C32.6509198,32.9071744 32.3276335,33 31.4361148,33 L26.5638852,33 C25.6723665,33 25.3490802,32.9071744 25.0231543,32.7328673 C24.6972284,32.5585602 24.4414398,32.3027716 24.2671327,31.9768457 C24.0928256,31.6509198 24,31.3276335 24,30.4361148 L24,25.5638852 C24,24.6723665 24.0928256,24.3490802 24.2671327,24.0231543 C24.4414398,23.6972284 24.6972284,23.4414398 25.0231543,23.2671327 C25.3490802,23.0928256 25.6723665,23 26.5638852,23 Z" id="Iris" fill-opacity="0.8" fill="#000000"></path>
                <path d="M72.5638852,23 L77.4361148,23 C78.3276335,23 78.6509198,23.0928256 78.9768457,23.2671327 C79.3027716,23.4414398 79.5585602,23.6972284 79.7328673,24.0231543 C79.9071744,24.3490802 80,24.6723665 80,25.5638852 L80,30.4361148 C80,31.3276335 79.9071744,31.6509198 79.7328673,31.9768457 C79.5585602,32.3027716 79.3027716,32.5585602 78.9768457,32.7328673 C78.6509198,32.9071744 78.3276335,33 77.4361148,33 L72.5638852,33 C71.6723665,33 71.3490802,32.9071744 71.0231543,32.7328673 C70.6972284,32.5585602 70.4414398,32.3027716 70.2671327,31.9768457 C70.0928256,31.6509198 70,31.3276335 70,30.4361148 L70,25.5638852 C70,24.6723665 70.0928256,24.3490802 70.2671327,24.0231543 C70.4414398,23.6972284 70.6972284,23.4414398 71.0231543,23.2671327 C71.3490802,23.0928256 71.6723665,23 72.5638852,23 Z" id="Iris" fill-opacity="0.8" fill="#000000"></path>
            </g>
        </g>
    </g>
</svg>